<svg width="0" height="0" class="hidden">
  <symbol fill="none" xmlns="http://www.w3.org/2000/svg" viewBox="0 0 24 24" id="icon-share">
    <g clip-path="url(#clip0_31_712)">
      <path d="M6 15C7.65685 15 9 13.6569 9 12C9 10.3431 7.65685 9 6 9C4.34315 9 3 10.3431 3 12C3 13.6569 4.34315 15 6 15Z" stroke="currentColor" stroke-width="1.5" stroke-linecap="round" stroke-linejoin="round"></path>
      <path d="M18 9C19.6569 9 21 7.65685 21 6C21 4.34315 19.6569 3 18 3C16.3431 3 15 4.34315 15 6C15 7.65685 16.3431 9 18 9Z" stroke="currentColor" stroke-width="1.5" stroke-linecap="round" stroke-linejoin="round"></path>
      <path d="M18 21C19.6569 21 21 19.6569 21 18C21 16.3431 19.6569 15 18 15C16.3431 15 15 16.3431 15 18C15 19.6569 16.3431 21 18 21Z" stroke="currentColor" stroke-width="1.5" stroke-linecap="round" stroke-linejoin="round"></path>
      <path d="M8.70001 10.6998L15.3 7.2998" stroke="currentColor" stroke-width="1.5" stroke-linecap="round" stroke-linejoin="round"></path>
      <path d="M8.70001 13.2998L15.3 16.6998" stroke="currentColor" stroke-width="1.5" stroke-linecap="round" stroke-linejoin="round"></path>
    </g>
    <defs>
      <clipPath id="clip0_31_712">
        <rect width="24" height="24" fill="white"></rect>
      </clipPath>
    </defs>
  </symbol>
  <symbol fill="none" xmlns="http://www.w3.org/2000/svg" viewBox="0 0 28 28" id="icon-marketplace">
    <g clip-path="url(#clip0_11_3832)">
      <path d="M6.99996 24.4999C8.28862 24.4999 9.33329 23.4553 9.33329 22.1666C9.33329 20.8779 8.28862 19.8333 6.99996 19.8333C5.71129 19.8333 4.66663 20.8779 4.66663 22.1666C4.66663 23.4553 5.71129 24.4999 6.99996 24.4999Z" stroke="currentColor" stroke-width="1.5" stroke-linecap="round" stroke-linejoin="round"></path>
      <path d="M19.8333 24.4999C21.122 24.4999 22.1667 23.4553 22.1667 22.1666C22.1667 20.8779 21.122 19.8333 19.8333 19.8333C18.5447 19.8333 17.5 20.8779 17.5 22.1666C17.5 23.4553 18.5447 24.4999 19.8333 24.4999Z" stroke="currentColor" stroke-width="1.5" stroke-linecap="round" stroke-linejoin="round"></path>
      <path d="M19.8333 19.8333H6.99996V3.5H4.66663" stroke="currentColor" stroke-width="1.5" stroke-linecap="round" stroke-linejoin="round"></path>
      <path d="M7 5.83325L23.3333 6.99992L22.1667 15.1666H7" stroke="currentColor" stroke-width="1.5" stroke-linecap="round" stroke-linejoin="round"></path>
    </g>
    <defs>
      <clipPath id="clip0_11_3832">
        <rect width="28" height="28" fill="white"></rect>
      </clipPath>
    </defs>
  </symbol>
  <symbol fill="none" xmlns="http://www.w3.org/2000/svg" viewBox="0 0 28 28" id="icon-notification">
    <g clip-path="url(#clip0_11_3824)">
      <path d="M11.6666 5.83333C11.6666 5.21449 11.9125 4.621 12.35 4.18342C12.7876 3.74583 13.3811 3.5 14 3.5C14.6188 3.5 15.2123 3.74583 15.6499 4.18342C16.0875 4.621 16.3333 5.21449 16.3333 5.83333C17.6731 6.46687 18.8153 7.45305 19.6374 8.68618C20.4594 9.91932 20.9305 11.3529 21 12.8333V16.3333C21.0878 17.0587 21.3446 17.7532 21.7499 18.3611C22.1552 18.9691 22.6975 19.4733 23.3333 19.8333H4.66663C5.30239 19.4733 5.84474 18.9691 6.25001 18.3611C6.65529 17.7532 6.91216 17.0587 6.99996 16.3333V12.8333C7.06945 11.3529 7.54048 9.91932 8.36257 8.68618C9.18466 7.45305 10.3268 6.46687 11.6666 5.83333" stroke="currentColor" stroke-width="1.5" stroke-linecap="round" stroke-linejoin="round"></path>
      <path d="M10.5 19.8333V20.9999C10.5 21.9282 10.8687 22.8184 11.5251 23.4748C12.1815 24.1312 13.0717 24.4999 14 24.4999C14.9283 24.4999 15.8185 24.1312 16.4749 23.4748C17.1313 22.8184 17.5 21.9282 17.5 20.9999V19.8333" stroke="currentColor" stroke-width="1.5" stroke-linecap="round" stroke-linejoin="round"></path>
    </g>
    <defs>
      <clipPath id="clip0_11_3824">
        <rect width="28" height="28" fill="white"></rect>
      </clipPath>
    </defs>
  </symbol>
  <symbol fill="none" xmlns="http://www.w3.org/2000/svg" viewBox="0 0 24 24" id="icon-copy">
    <g clip-path="url(#clip0_11_2754)">
      <path d="M18 8H10C8.89543 8 8 8.89543 8 10V18C8 19.1046 8.89543 20 10 20H18C19.1046 20 20 19.1046 20 18V10C20 8.89543 19.1046 8 18 8Z" stroke="#728A96" stroke-width="1.5" stroke-linecap="round" stroke-linejoin="round"></path>
      <path d="M16 8V6C16 5.46957 15.7893 4.96086 15.4142 4.58579C15.0391 4.21071 14.5304 4 14 4H6C5.46957 4 4.96086 4.21071 4.58579 4.58579C4.21071 4.96086 4 5.46957 4 6V14C4 14.5304 4.21071 15.0391 4.58579 15.4142C4.96086 15.7893 5.46957 16 6 16H8" stroke="#728A96" stroke-width="1.5" stroke-linecap="round" stroke-linejoin="round"></path>
    </g>
    <defs>
      <clipPath id="clip0_11_2754">
        <rect width="24" height="24" fill="white"></rect>
      </clipPath>
    </defs>
  </symbol>
  <symbol fill="none" xmlns="http://www.w3.org/2000/svg" viewBox="0 0 16 9" id="icon-dropdown">
    <path d="M15 1L8 8L1 1" stroke="#728A96" stroke-width="1.5" stroke-linecap="round" stroke-linejoin="round"></path>
  </symbol>
  <symbol fill="none" xmlns="http://www.w3.org/2000/svg" viewBox="0 0 34 34" id="icon-arrow-back">
    <g clip-path="url(#clip0_11_2759)">
      <path d="M7.08331 17H26.9166" stroke="currentColor" stroke-width="2" stroke-linecap="round" stroke-linejoin="round"></path>
      <path d="M7.08331 17L12.75 22.6667" stroke="currentColor" stroke-width="2" stroke-linecap="round" stroke-linejoin="round"></path>
      <path d="M7.08331 16.9999L12.75 11.3333" stroke="currentColor" stroke-width="2" stroke-linecap="round" stroke-linejoin="round"></path>
    </g>
    <defs>
      <clipPath id="clip0_11_2759">
        <rect width="34" height="34" fill="white"></rect>
      </clipPath>
    </defs>
  </symbol>
  <symbol fill="none" xmlns="http://www.w3.org/2000/svg" viewBox="0 0 24 24" id="icon-diamond">
    <g clip-path="url(#clip0_11_3734)">
      <path d="M23.8568 8.86453C24.0646 8.60264 24.0431 8.20059 23.813 7.95928L18.1403 1.86473C18.0073 1.72181 17.8209 1.64062 17.6256 1.64062H6.84279C6.65721 1.64062 6.47918 1.71398 6.34746 1.84472L0.205897 7.93927C-0.052431 8.18761 -0.0701029 8.62641 0.166616 8.89528L11.4652 22.1157C11.7299 22.4406 12.2696 22.4405 12.5344 22.1157L23.8329 8.89523C23.841 8.88511 23.849 8.87494 23.8568 8.86453ZM15.298 7.73517H8.70157L11.9997 3.49003L15.298 7.73517ZM15.736 9.14161L11.9998 19.5733L8.26357 9.14161H15.736ZM6.76962 9.14161L10.0466 18.291L2.22729 9.14161H6.76962ZM17.2299 9.14161H21.7722L13.953 18.291L17.2299 9.14161ZM21.683 7.73517H17.079L13.4366 3.04706H17.3194L21.683 7.73517ZM7.13247 3.04706H10.5629L6.92051 7.73517H2.40823L7.13247 3.04706Z" fill="white"></path>
    </g>
    <defs>
      <clipPath id="clip0_11_3734">
        <rect width="24" height="24" fill="white"></rect>
      </clipPath>
    </defs>
  </symbol>
  <symbol fill="none" xmlns="http://www.w3.org/2000/svg" viewBox="0 0 28 28" id="icon-cabinet">
    <g clip-path="url(#clip0_11_3842)">
      <path d="M14 24.5C19.799 24.5 24.5 19.799 24.5 14C24.5 8.20101 19.799 3.5 14 3.5C8.20101 3.5 3.5 8.20101 3.5 14C3.5 19.799 8.20101 24.5 14 24.5Z" stroke="currentColor" stroke-width="1.5" stroke-linecap="round" stroke-linejoin="round"></path>
      <path d="M14 15.1667C15.933 15.1667 17.5 13.5997 17.5 11.6667C17.5 9.73375 15.933 8.16675 14 8.16675C12.067 8.16675 10.5 9.73375 10.5 11.6667C10.5 13.5997 12.067 15.1667 14 15.1667Z" stroke="currentColor" stroke-width="1.5" stroke-linecap="round" stroke-linejoin="round"></path>
      <path d="M7.19604 21.9906C7.48481 21.0295 8.07567 20.1871 8.881 19.5884C9.68632 18.9896 10.6632 18.6665 11.6667 18.6667H16.3334C17.3382 18.6664 18.3163 18.9904 19.1222 19.5905C19.9281 20.1906 20.5188 21.0348 20.8064 21.9976" stroke="currentColor" stroke-width="1.5" stroke-linecap="round" stroke-linejoin="round"></path>
    </g>
    <defs>
      <clipPath id="clip0_11_3842">
        <rect width="28" height="28" fill="white"></rect>
      </clipPath>
    </defs>
  </symbol>
  <symbol fill="none" xmlns="http://www.w3.org/2000/svg" viewBox="0 0 24 24" id="icon-history">
    <g clip-path="url(#clip0_11_3721)">
      <path d="M22.4238 11.9999C22.4238 9.98282 21.8466 8.02559 20.7546 6.33982C19.6915 4.69849 18.1961 3.39208 16.4302 2.56187C16.0761 2.39542 15.6541 2.54748 15.4877 2.90153C15.3212 3.25562 15.4733 3.67759 15.8273 3.84409C18.9737 5.32343 21.0069 8.52477 21.0069 11.9999C21.0069 16.7954 17.2396 20.7271 12.5093 20.9922L12.8614 20.6401C13.1381 20.3634 13.1381 19.9149 12.8614 19.6382C12.5848 19.3615 12.1362 19.3615 11.8595 19.6382L10.2833 21.2144C10.1505 21.3472 10.0758 21.5274 10.0758 21.7153C10.0758 21.9032 10.1504 22.0834 10.2833 22.2163L11.8595 23.7924C11.9978 23.9308 12.1791 24 12.3604 24C12.5417 24 12.723 23.9308 12.8613 23.7924C13.138 23.5158 13.138 23.0672 12.8613 22.7905L12.4832 22.4124C15.086 22.2944 17.5161 21.2251 19.3705 19.3707C21.3395 17.4018 22.4238 14.7842 22.4238 11.9999Z" fill="white"></path>
      <path d="M13.2892 1.78367L11.713 0.207493C11.4364 -0.0691643 10.9878 -0.0691643 10.7111 0.207493C10.4344 0.48415 10.4344 0.932699 10.7111 1.2094L11.1154 1.61375C8.66478 1.81836 6.38805 2.87047 4.62925 4.62928C2.66044 6.59808 1.57617 9.21568 1.57617 12C1.57617 14.0171 2.15335 15.9743 3.24535 17.6601C4.30853 19.3014 5.80389 20.6079 7.56977 21.4381C7.66723 21.4839 7.76974 21.5056 7.87071 21.5056C8.13673 21.5056 8.39159 21.355 8.51229 21.0984C8.67879 20.7443 8.52664 20.3223 8.17259 20.1558C5.02619 18.6765 2.99307 15.4751 2.99307 12C2.99307 7.36299 6.51546 3.53366 11.025 3.04597L10.7111 3.35985C10.4345 3.63651 10.4345 4.08506 10.7111 4.36176C10.8494 4.50009 11.0308 4.56928 11.212 4.56928C11.3933 4.56928 11.5746 4.50013 11.7129 4.36176L13.2892 2.78553C13.422 2.65269 13.4967 2.4725 13.4967 2.28463C13.4967 2.0967 13.422 1.91661 13.2892 1.78367Z" fill="white"></path>
      <path d="M16.2244 7.78489C15.9478 7.50823 15.4992 7.50823 15.2225 7.78489L11.499 11.5084C11.3662 11.6412 11.2915 11.8214 11.2915 12.0093C11.2915 12.1972 11.3661 12.3773 11.499 12.5102L14.2854 15.2965C14.4237 15.4349 14.605 15.5041 14.7863 15.5041C14.9676 15.5041 15.1489 15.4349 15.2872 15.2965C15.5638 15.0199 15.5638 14.5713 15.2872 14.2946L13.0017 12.0092L16.2242 8.7867C16.5011 8.51009 16.5011 8.06154 16.2244 7.78489Z" fill="white"></path>
    </g>
    <defs>
      <clipPath id="clip0_11_3721">
        <rect width="24" height="24" fill="white"></rect>
      </clipPath>
    </defs>
  </symbol>
  <symbol fill="none" xmlns="http://www.w3.org/2000/svg" viewBox="0 0 30 30" id="icon-plus">
    <path d="M24.375 14.1211H15.8789V5.625C15.8789 5.13961 15.4854 4.74609 15 4.74609C14.5146 4.74609 14.1211 5.13961 14.1211 5.625V14.1211H5.625C5.13961 14.1211 4.74609 14.5146 4.74609 15C4.74609 15.4854 5.13961 15.8789 5.625 15.8789H14.1211V24.375C14.1211 24.8604 14.5146 25.2539 15 25.2539C15.4854 25.2539 15.8789 24.8604 15.8789 24.375V15.8789H24.375C24.8604 15.8789 25.2539 15.4854 25.2539 15C25.2539 14.5146 24.8604 14.1211 24.375 14.1211Z" fill="white"></path>
  </symbol>
  <symbol fill="none" xmlns="http://www.w3.org/2000/svg" viewBox="0 0 20 20" id="icon-send-vr">
    <g clip-path="url(#clip0_11_2882)">
      <path d="M12.5 8.33325L9.16667 11.6666L14.1667 16.6666L17.5 3.33325L2.5 9.16659L5.83333 10.8333L7.5 15.8333L10 12.4999" stroke="currentColor" stroke-width="1.5" stroke-linecap="round" stroke-linejoin="round"></path>
    </g>
    <defs>
      <clipPath id="clip0_11_2882">
        <rect width="20" height="20" fill="white"></rect>
      </clipPath>
    </defs>
  </symbol>
  <symbol fill="none" xmlns="http://www.w3.org/2000/svg" viewBox="0 0 24 24" id="icon-send">
    <g clip-path="url(#clip0_11_3715)">
      <path d="M22.5707 9.8594L3.20693 1.8246C2.39116 1.48607 1.4696 1.63499 0.801817 2.21306C0.134035 2.79121 -0.145246 3.68198 0.0730042 4.53782L1.97585 11.9999L0.0730042 19.4621C-0.145246 20.3179 0.133989 21.2087 0.80177 21.7868C1.47082 22.3661 2.39261 22.5132 3.20693 22.1753L22.5707 14.1405C23.4523 13.7747 24 12.9545 24 11.9999C24 11.0454 23.4523 10.2252 22.5707 9.8594ZM22.0317 12.8416L2.66796 20.8764C2.34232 21.0114 1.98883 20.9544 1.72225 20.7236C1.45572 20.4929 1.34861 20.1512 1.43571 19.8095L3.24785 12.7031H10.2353C10.6236 12.7031 10.9384 12.3883 10.9384 11.9999C10.9384 11.6115 10.6236 11.2967 10.2353 11.2967H3.2479L1.43571 4.19038C1.34861 3.84876 1.45572 3.50704 1.72225 3.27627C1.98879 3.04551 2.34218 2.98842 2.66791 3.12351L22.0317 11.1583C22.5532 11.3747 22.5937 11.8572 22.5937 11.9999C22.5937 12.1427 22.5532 12.6252 22.0317 12.8416Z" fill="white"></path>
    </g>
    <defs>
      <clipPath id="clip0_11_3715">
        <rect width="24" height="24" fill="white"></rect>
      </clipPath>
    </defs>
  </symbol>
</svg>