<svg width="24" height="24" viewBox="0 0 24 24" fill="none" xmlns="http://www.w3.org/2000/svg">
<g clip-path="url(#clip0_11_3721)">
<path d="M22.4238 11.9999C22.4238 9.98282 21.8466 8.02559 20.7546 6.33982C19.6915 4.69849 18.1961 3.39208 16.4302 2.56187C16.0761 2.39542 15.6541 2.54748 15.4877 2.90153C15.3212 3.25562 15.4733 3.67759 15.8273 3.84409C18.9737 5.32343 21.0069 8.52477 21.0069 11.9999C21.0069 16.7954 17.2396 20.7271 12.5093 20.9922L12.8614 20.6401C13.1381 20.3634 13.1381 19.9149 12.8614 19.6382C12.5848 19.3615 12.1362 19.3615 11.8595 19.6382L10.2833 21.2144C10.1505 21.3472 10.0758 21.5274 10.0758 21.7153C10.0758 21.9032 10.1504 22.0834 10.2833 22.2163L11.8595 23.7924C11.9978 23.9308 12.1791 24 12.3604 24C12.5417 24 12.723 23.9308 12.8613 23.7924C13.138 23.5158 13.138 23.0672 12.8613 22.7905L12.4832 22.4124C15.086 22.2944 17.5161 21.2251 19.3705 19.3707C21.3395 17.4018 22.4238 14.7842 22.4238 11.9999Z" fill="white"/>
<path d="M13.2892 1.78367L11.713 0.207493C11.4364 -0.0691643 10.9878 -0.0691643 10.7111 0.207493C10.4344 0.48415 10.4344 0.932699 10.7111 1.2094L11.1154 1.61375C8.66478 1.81836 6.38805 2.87047 4.62925 4.62928C2.66044 6.59808 1.57617 9.21568 1.57617 12C1.57617 14.0171 2.15335 15.9743 3.24535 17.6601C4.30853 19.3014 5.80389 20.6079 7.56977 21.4381C7.66723 21.4839 7.76974 21.5056 7.87071 21.5056C8.13673 21.5056 8.39159 21.355 8.51229 21.0984C8.67879 20.7443 8.52664 20.3223 8.17259 20.1558C5.02619 18.6765 2.99307 15.4751 2.99307 12C2.99307 7.36299 6.51546 3.53366 11.025 3.04597L10.7111 3.35985C10.4345 3.63651 10.4345 4.08506 10.7111 4.36176C10.8494 4.50009 11.0308 4.56928 11.212 4.56928C11.3933 4.56928 11.5746 4.50013 11.7129 4.36176L13.2892 2.78553C13.422 2.65269 13.4967 2.4725 13.4967 2.28463C13.4967 2.0967 13.422 1.91661 13.2892 1.78367Z" fill="white"/>
<path d="M16.2244 7.78489C15.9478 7.50823 15.4992 7.50823 15.2225 7.78489L11.499 11.5084C11.3662 11.6412 11.2915 11.8214 11.2915 12.0093C11.2915 12.1972 11.3661 12.3773 11.499 12.5102L14.2854 15.2965C14.4237 15.4349 14.605 15.5041 14.7863 15.5041C14.9676 15.5041 15.1489 15.4349 15.2872 15.2965C15.5638 15.0199 15.5638 14.5713 15.2872 14.2946L13.0017 12.0092L16.2242 8.7867C16.5011 8.51009 16.5011 8.06154 16.2244 7.78489Z" fill="white"/>
</g>
<defs>
<clipPath id="clip0_11_3721">
<rect width="24" height="24" fill="white"/>
</clipPath>
</defs>
</svg>
