<svg width="24" height="24" viewBox="0 0 24 24" fill="none" xmlns="http://www.w3.org/2000/svg">
<g clip-path="url(#clip0_11_3715)">
<path d="M22.5707 9.8594L3.20693 1.8246C2.39116 1.48607 1.4696 1.63499 0.801817 2.21306C0.134035 2.79121 -0.145246 3.68198 0.0730042 4.53782L1.97585 11.9999L0.0730042 19.4621C-0.145246 20.3179 0.133989 21.2087 0.80177 21.7868C1.47082 22.3661 2.39261 22.5132 3.20693 22.1753L22.5707 14.1405C23.4523 13.7747 24 12.9545 24 11.9999C24 11.0454 23.4523 10.2252 22.5707 9.8594ZM22.0317 12.8416L2.66796 20.8764C2.34232 21.0114 1.98883 20.9544 1.72225 20.7236C1.45572 20.4929 1.34861 20.1512 1.43571 19.8095L3.24785 12.7031H10.2353C10.6236 12.7031 10.9384 12.3883 10.9384 11.9999C10.9384 11.6115 10.6236 11.2967 10.2353 11.2967H3.2479L1.43571 4.19038C1.34861 3.84876 1.45572 3.50704 1.72225 3.27627C1.98879 3.04551 2.34218 2.98842 2.66791 3.12351L22.0317 11.1583C22.5532 11.3747 22.5937 11.8572 22.5937 11.9999C22.5937 12.1427 22.5532 12.6252 22.0317 12.8416Z" fill="white"/>
</g>
<defs>
<clipPath id="clip0_11_3715">
<rect width="24" height="24" fill="white"/>
</clipPath>
</defs>
</svg>
