<svg width="30" height="30" viewBox="0 0 30 30" fill="none" xmlns="http://www.w3.org/2000/svg">
<path d="M24.375 14.1211H15.8789V5.625C15.8789 5.13961 15.4854 4.74609 15 4.74609C14.5146 4.74609 14.1211 5.13961 14.1211 5.625V14.1211H5.625C5.13961 14.1211 4.74609 14.5146 4.74609 15C4.74609 15.4854 5.13961 15.8789 5.625 15.8789H14.1211V24.375C14.1211 24.8604 14.5146 25.2539 15 25.2539C15.4854 25.2539 15.8789 24.8604 15.8789 24.375V15.8789H24.375C24.8604 15.8789 25.2539 15.4854 25.2539 15C25.2539 14.5146 24.8604 14.1211 24.375 14.1211Z" fill="white"/>
</svg>
