<svg width="28" height="28" viewBox="0 0 28 28" fill="none" xmlns="http://www.w3.org/2000/svg">
<g clip-path="url(#clip0_11_3832)">
<path d="M6.99996 24.4999C8.28862 24.4999 9.33329 23.4553 9.33329 22.1666C9.33329 20.8779 8.28862 19.8333 6.99996 19.8333C5.71129 19.8333 4.66663 20.8779 4.66663 22.1666C4.66663 23.4553 5.71129 24.4999 6.99996 24.4999Z" stroke="currentColor" stroke-width="1.5" stroke-linecap="round" stroke-linejoin="round"/>
<path d="M19.8333 24.4999C21.122 24.4999 22.1667 23.4553 22.1667 22.1666C22.1667 20.8779 21.122 19.8333 19.8333 19.8333C18.5447 19.8333 17.5 20.8779 17.5 22.1666C17.5 23.4553 18.5447 24.4999 19.8333 24.4999Z" stroke="currentColor" stroke-width="1.5" stroke-linecap="round" stroke-linejoin="round"/>
<path d="M19.8333 19.8333H6.99996V3.5H4.66663" stroke="currentColor" stroke-width="1.5" stroke-linecap="round" stroke-linejoin="round"/>
<path d="M7 5.83325L23.3333 6.99992L22.1667 15.1666H7" stroke="currentColor" stroke-width="1.5" stroke-linecap="round" stroke-linejoin="round"/>
</g>
<defs>
<clipPath id="clip0_11_3832">
<rect width="28" height="28" fill="white"/>
</clipPath>
</defs>
</svg>
