<svg width="28" height="28" viewBox="0 0 28 28" fill="none" xmlns="http://www.w3.org/2000/svg">
<g clip-path="url(#clip0_11_3842)">
<path d="M14 24.5C19.799 24.5 24.5 19.799 24.5 14C24.5 8.20101 19.799 3.5 14 3.5C8.20101 3.5 3.5 8.20101 3.5 14C3.5 19.799 8.20101 24.5 14 24.5Z" stroke="currentColor" stroke-width="1.5" stroke-linecap="round" stroke-linejoin="round"/>
<path d="M14 15.1667C15.933 15.1667 17.5 13.5997 17.5 11.6667C17.5 9.73375 15.933 8.16675 14 8.16675C12.067 8.16675 10.5 9.73375 10.5 11.6667C10.5 13.5997 12.067 15.1667 14 15.1667Z" stroke="currentColor" stroke-width="1.5" stroke-linecap="round" stroke-linejoin="round"/>
<path d="M7.19604 21.9906C7.48481 21.0295 8.07567 20.1871 8.881 19.5884C9.68632 18.9896 10.6632 18.6665 11.6667 18.6667H16.3334C17.3382 18.6664 18.3163 18.9904 19.1222 19.5905C19.9281 20.1906 20.5188 21.0348 20.8064 21.9976" stroke="currentColor" stroke-width="1.5" stroke-linecap="round" stroke-linejoin="round"/>
</g>
<defs>
<clipPath id="clip0_11_3842">
<rect width="28" height="28" fill="white"/>
</clipPath>
</defs>
</svg>
