<svg width="24" height="24" viewBox="0 0 24 24" fill="none" xmlns="http://www.w3.org/2000/svg">
<g clip-path="url(#clip0_11_3734)">
<path d="M23.8568 8.86453C24.0646 8.60264 24.0431 8.20059 23.813 7.95928L18.1403 1.86473C18.0073 1.72181 17.8209 1.64062 17.6256 1.64062H6.84279C6.65721 1.64062 6.47918 1.71398 6.34746 1.84472L0.205897 7.93927C-0.052431 8.18761 -0.0701029 8.62641 0.166616 8.89528L11.4652 22.1157C11.7299 22.4406 12.2696 22.4405 12.5344 22.1157L23.8329 8.89523C23.841 8.88511 23.849 8.87494 23.8568 8.86453ZM15.298 7.73517H8.70157L11.9997 3.49003L15.298 7.73517ZM15.736 9.14161L11.9998 19.5733L8.26357 9.14161H15.736ZM6.76962 9.14161L10.0466 18.291L2.22729 9.14161H6.76962ZM17.2299 9.14161H21.7722L13.953 18.291L17.2299 9.14161ZM21.683 7.73517H17.079L13.4366 3.04706H17.3194L21.683 7.73517ZM7.13247 3.04706H10.5629L6.92051 7.73517H2.40823L7.13247 3.04706Z" fill="white"/>
</g>
<defs>
<clipPath id="clip0_11_3734">
<rect width="24" height="24" fill="white"/>
</clipPath>
</defs>
</svg>
